<svg width="27" height="27" viewBox="0 0 27 27" fill="none" xmlns="http://www.w3.org/2000/svg">
<path d="M13.3333 0C10.6963 0 8.11839 0.781986 5.92574 2.24707C3.73308 3.71216 2.02411 5.79454 1.01495 8.23089C0.00577712 10.6672 -0.258267 13.3481 0.256202 15.9345C0.770672 18.521 2.04055 20.8967 3.90525 22.7614C5.76995 24.6261 8.14572 25.896 10.7321 26.4105C13.3185 26.9249 15.9994 26.6609 18.4358 25.6517C20.8721 24.6426 22.9545 22.9336 24.4196 20.7409C25.8847 18.5483 26.6667 15.9704 26.6667 13.3333C26.6667 11.5824 26.3218 9.84856 25.6517 8.23089C24.9817 6.61321 23.9995 5.14336 22.7614 3.90524C21.5233 2.66713 20.0535 1.685 18.4358 1.01494C16.8181 0.344877 15.0843 0 13.3333 0ZM17.5733 20.2027C17.5236 20.3272 17.4477 20.4397 17.3509 20.5325C17.2541 20.6254 17.1385 20.6964 17.012 20.7408C16.8854 20.7853 16.7508 20.8022 16.6172 20.7903C16.4836 20.7784 16.3541 20.7381 16.2373 20.672L12.6173 17.8587L10.2947 20.0027C10.2408 20.0425 10.1777 20.0681 10.1113 20.0772C10.0449 20.0863 9.9773 20.0785 9.91467 20.0547L10.36 16.0693L10.3733 16.0813L10.3827 16.0027C10.3827 16.0027 16.896 10.072 17.1613 9.82C17.4307 9.568 17.3413 9.51333 17.3413 9.51333C17.3573 9.20667 16.86 9.51333 16.86 9.51333L8.22934 15.0653L4.63601 13.8413C4.63601 13.8413 4.08401 13.644 4.03201 13.208C3.97734 12.776 4.65334 12.5413 4.65334 12.5413L18.9427 6.864C18.9427 6.864 20.1173 6.34133 20.1173 7.208L17.5733 20.2027Z" fill="#EBEBDF"/>
</svg>
