<svg width="3431" height="2380" viewBox="0 0 3431 2380" fill="none" xmlns="http://www.w3.org/2000/svg">
<path d="M767.172 205C1190.87 205 1534.34 551.979 1534.34 980C1534.34 1408.02 1190.87 1755 767.172 1755C580.628 1755 409.637 1687.74 276.661 1575.92C394.103 1671.35 540.615 1728 699.5 1728C1085.82 1728 1399 1393.11 1399 980C1399 566.891 1085.82 232 699.5 232C540.615 232 394.103 288.648 276.661 384.084C409.637 272.261 580.628 205 767.172 205ZM0.0527344 970.857C0.0186479 973.901 0 976.948 0 980C0 983.052 0.018654 986.099 0.0527344 989.142C0.0179162 986.099 0 983.051 0 980C0 976.948 0.0179098 973.901 0.0527344 970.857Z" fill="white"/>
<path d="M1278.09 424.031L1373.6 470.606L1523.03 708.407C1524.4 710.323 1525.76 712.236 1527.12 714.146C1571.41 776.063 1662.75 893.528 1704.78 910.422L1701.51 934.182C1693.97 952.955 1615.98 839.093 1527.12 714.146C1525.71 712.175 1524.35 710.261 1523.03 708.407C1429.37 576.86 1316.27 446.682 1278.09 424.031Z" fill="white"/>
<path d="M1523.03 708.407C1429.37 576.86 1316.27 446.682 1278.09 424.031L1373.6 470.606L1523.03 708.407ZM1523.03 708.407C1613.58 835.58 1693.85 953.242 1701.51 934.182L1704.78 910.422C1661.41 892.99 1565.55 768.482 1523.03 708.407Z" stroke="white" stroke-width="33"/>
<path d="M1714.58 371L1691 621.5V1322.5L1714.58 1588L1737 1322.5V621.5L1714.58 371Z" fill="white" stroke="white" stroke-width="7"/>
<path d="M1366 1014.5H1243.58L1243.43 1014.49L1065.7 999.378L1065.69 992.404L1243.42 976.514L1243.58 976.5H1366V1014.5ZM1716.5 980L1716.5 995.891L1716.5 1011L1716.5 1014.5H1408V976.5H1716.5L1716.5 980Z" fill="white"/>
<path d="M2663.42 205C2239.72 205 1896.25 551.979 1896.25 980C1896.25 1408.02 2239.72 1755 2663.42 1755C2849.97 1755 3020.96 1687.74 3153.93 1575.92C3036.49 1671.35 2889.98 1728 2731.09 1728C2344.77 1728 2031.59 1393.11 2031.59 980C2031.59 566.891 2344.77 232 2731.09 232C2889.98 232 3036.49 288.648 3153.93 384.084C3020.96 272.261 2849.97 205 2663.42 205ZM3430.54 970.857C3430.58 973.901 3430.59 976.948 3430.59 980C3430.59 983.052 3430.58 986.099 3430.54 989.142C3430.58 986.099 3430.59 983.051 3430.59 980C3430.59 976.948 3430.58 973.901 3430.54 970.857Z" fill="white"/>
<path d="M2152.5 424.031L2056.99 470.606L1907.56 708.407C1906.2 710.323 1904.83 712.236 1903.48 714.146C1859.18 776.063 1767.84 893.528 1725.81 910.422L1729.09 934.182C1736.63 952.955 1814.61 839.093 1903.48 714.146C1904.89 712.175 1906.25 710.261 1907.56 708.407C2001.22 576.86 2114.32 446.682 2152.5 424.031Z" fill="white"/>
<path d="M1907.56 708.407C2001.22 576.86 2114.32 446.682 2152.5 424.031L2056.99 470.606L1907.56 708.407ZM1907.56 708.407C1817.01 835.58 1736.74 953.242 1729.09 934.182L1725.81 910.422C1769.18 892.99 1865.05 768.482 1907.56 708.407Z" stroke="white" stroke-width="33"/>
<path d="M2064.59 1014.5H2187.01L2187.16 1014.49L2364.89 999.378L2364.91 992.404L2187.17 976.514L2187.02 976.5H2064.59V1014.5ZM1714.1 980L1714.09 995.891L1714.1 1011L1714.1 1014.5H2022.59V976.5H1714.1L1714.1 980Z" fill="white"/>
<path d="M2054.64 1500C1763.23 1749.42 1474.55 1603.93 1366.63 1500L1339.5 1532C1632.5 1796.5 1960.64 1648.58 2087.5 1532L2054.64 1500Z" fill="white" stroke="white" stroke-width="7"/>
<path d="M2057.14 423.939C1765.73 174.517 1477.05 320.014 1369.13 423.939L1331.5 403.5C1624.5 139 1972.64 286.915 2099.5 403.5L2057.14 423.939Z" fill="white" stroke="white" stroke-width="7"/>
<path d="M538.6 1320H380.2V1308C399.4 1303.2 406.6 1291.2 406.6 1276.8C406.6 1261.2 400.6 1242 392.2 1224L109 576C104.2 564 98.2 552 91 541.2V1140C91 1200 103 1284 175 1308V1320H25V1308C73 1284 73 1200 73 1140V517.2C62.2 505.2 47.8 496.8 31 492V480H231.4V492C212.2 499.2 203.8 516 203.8 536.4C203.8 548.4 207.4 562.8 213.4 576L447.4 1111.2C448.6 1080 457 1052.4 471.4 1020L707.8 480H845.8V492C797.8 504 797.8 540 797.8 576V1224C797.8 1260 797.8 1296 845.8 1308V1320H653.8V1308C701.8 1296 701.8 1260 701.8 1224V537.6L488.2 1027.2C475 1058.4 465.4 1086 465.4 1117.2C465.4 1140 470.2 1165.2 483.4 1192.8L538.6 1320ZM1020.36 1325C889.359 1325 783.359 1227 783.359 1069C783.359 913 889.359 815 1020.36 815C1150.36 815 1256.36 913 1256.36 1069C1256.36 1227 1150.36 1325 1020.36 1325ZM858.359 1069C858.359 1260 925.359 1311 1020.36 1311C1114.36 1311 1181.36 1260 1181.36 1069C1181.36 880 1114.36 830 1020.36 830C925.359 830 858.359 880 858.359 1069Z" fill="white"/>
<path d="M1146 2230V2225C1166 2220 1166 2205 1166 2190V1887.5H1118.5C1091.5 1887.5 1080 1908.5 1055.5 1963L1051.5 1962L1063.5 1877.5C1080.5 1880 1093 1880 1118.5 1880H1253.5C1279 1880 1291.5 1880 1308.5 1877.5L1320.5 1962L1316.5 1963C1292 1908.5 1280.5 1887.5 1253.5 1887.5H1206V2190C1206 2205 1206 2220 1226 2225V2230H1146ZM1424.87 2225C1441.37 2221 1446.37 2214.5 1446.37 2206C1446.37 2201 1444.37 2195.5 1442.37 2190L1421.87 2131H1278.87L1273.37 2147C1265.37 2170 1261.37 2186 1261.37 2197.5C1261.37 2215 1269.87 2221.5 1285.87 2225V2230H1225.37V2225C1238.87 2220 1245.37 2205 1250.37 2190L1345.87 1914L1341.87 1902C1338.37 1892 1336.87 1888.5 1330.87 1885V1880H1377.37L1484.87 2190C1489.87 2205 1495.87 2220 1509.87 2225V2230H1424.87V2225ZM1281.37 2123.5H1419.37L1349.87 1925.5L1281.37 2123.5ZM1519.61 2230V2225C1539.61 2220 1539.61 2205 1539.61 2190V1887.5H1492.11C1465.11 1887.5 1453.61 1908.5 1429.11 1963L1425.11 1962L1437.11 1877.5C1454.11 1880 1466.61 1880 1492.11 1880H1769.11C1794.61 1880 1807.11 1880 1824.11 1877.5L1836.11 1962L1832.11 1963C1807.61 1908.5 1796.11 1887.5 1769.11 1887.5H1721.61V2190C1721.61 2205 1721.61 2220 1741.61 2225V2230H1661.61V2225C1681.61 2220 1681.61 2205 1681.61 2190V1887.5H1579.61V2190C1579.61 2205 1579.61 2220 1599.61 2225V2230H1519.61ZM1949.36 2232.5C1863.36 2232.5 1793.86 2164.5 1793.86 2055C1793.86 1945.5 1863.36 1877.5 1949.36 1877.5C2006.86 1877.5 2056.86 1907.5 2083.86 1960C2110.86 1907.5 2160.86 1877.5 2218.36 1877.5C2304.86 1877.5 2374.36 1945.5 2374.36 2055C2374.36 2164.5 2304.86 2232.5 2218.36 2232.5C2160.86 2232.5 2110.86 2202.5 2083.86 2150C2056.86 2202.5 2006.86 2232.5 1949.36 2232.5ZM1836.36 2055C1836.36 2187.5 1887.36 2225 1949.36 2225C2011.86 2225 2062.86 2187.5 2062.86 2055C2062.86 1922.5 2011.86 1885 1949.36 1885C1887.36 1885 1836.36 1922.5 1836.36 2055ZM2105.36 2055C2105.36 2187.5 2156.36 2225 2218.36 2225C2280.86 2225 2331.86 2187.5 2331.86 2055C2331.86 1922.5 2280.86 1885 2218.36 1885C2156.36 1885 2105.36 1922.5 2105.36 2055Z" fill="white"/>
<path d="M2292 1320V1313C2320 1306 2320 1285 2320 1264V886C2320 865 2320 844 2292 837V830H2404V837C2376 844 2376 865 2376 886V995.2H2593V886C2593 865 2593 844 2565 837V830H2677V837C2649 844 2649 865 2649 886V1264C2649 1285 2649 1306 2677 1313V1320H2565V1313C2593 1306 2593 1285 2593 1264V1005.7H2376V1264C2376 1285 2376 1306 2404 1313V1320H2292ZM3119.69 1308C3159.29 1298.4 3171.29 1282.8 3171.29 1262.4C3171.29 1250.4 3166.49 1237.2 3161.69 1224L3112.49 1082.4H2769.29L2756.09 1120.8C2736.89 1176 2727.29 1214.4 2727.29 1242C2727.29 1284 2747.69 1299.6 2786.09 1308V1320H2640.89V1308C2673.29 1296 2688.89 1260 2700.89 1224L2930.09 561.6L2920.49 532.8C2912.09 508.8 2908.49 500.4 2894.09 492V480H3005.69L3263.69 1224C3275.69 1260 3290.09 1296 3323.69 1308V1320H3119.69V1308ZM2775.29 1064.4H3106.49L2939.69 589.2L2775.29 1064.4Z" fill="white"/>
</svg>
