<svg width="118" height="54" viewBox="0 0 118 54" fill="none" xmlns="http://www.w3.org/2000/svg">
<path d="M26.4143 0.25C40.8645 0.250005 52.5787 12.1145 52.5787 26.75C52.5787 41.3855 40.8645 53.25 26.4143 53.25C20.0523 53.25 14.2206 50.9501 9.68551 47.1264C13.6909 50.3898 18.6876 52.3268 24.1064 52.3268C37.2819 52.3268 47.9628 40.8757 47.9628 26.75C47.9628 12.6243 37.2819 1.17323 24.1064 1.17323C18.6876 1.17323 13.6909 3.11022 9.68551 6.37352C14.2206 2.5499 20.0523 0.25 26.4143 0.25Z" fill="white"/>
<path d="M43.8392 7.73946L47.0964 9.33202L52.1928 17.4633C52.2393 17.5288 52.2858 17.5942 52.3321 17.6595C53.8427 19.7767 56.9578 23.7932 58.3913 24.3709L58.2796 25.1833C58.0225 25.8252 55.3628 21.9319 52.3321 17.6595C52.284 17.5921 52.2376 17.5267 52.1928 17.4633C48.9986 12.9652 45.1412 8.51396 43.8392 7.73946Z" fill="white"/>
<path d="M58.7256 5.92613L57.9214 14.4916V38.4613L58.7256 47.5397L59.4903 38.4613V14.4916L58.7256 5.92613Z" fill="white"/>
<path d="M46.8373 27.9297H42.6623L36.5957 27.4126L36.5952 27.1741L42.6567 26.6308L42.662 26.6303H46.8373V27.9297Z" fill="white"/>
<path d="M58.791 27.9297H48.2697V26.6303H58.791V27.9297Z" fill="white"/>
<path d="M91.0857 0.25C76.6355 0.250005 64.9213 12.1145 64.9213 26.75C64.9213 41.3855 76.6355 53.25 91.0857 53.25C97.4477 53.25 103.279 50.9501 107.815 47.1264C103.809 50.3898 98.8124 52.3268 93.3936 52.3268C80.2181 52.3268 69.5372 40.8757 69.5372 26.75C69.5372 12.6243 80.2181 1.17323 93.3936 1.17323C98.8124 1.17323 103.809 3.11022 107.815 6.37352C103.279 2.5499 97.4477 0.25 91.0857 0.25Z" fill="white"/>
<path d="M73.6609 7.73946L70.4037 9.33202L65.3072 17.4633C65.2607 17.5288 65.2142 17.5942 65.1679 17.6595C63.6573 19.7767 60.5422 23.7932 59.1087 24.3709L59.2204 25.1833C59.4775 25.8252 62.1373 21.9319 65.1679 17.6595C65.216 17.5921 65.2624 17.5267 65.3072 17.4633C68.5014 12.9652 72.3588 8.51396 73.6609 7.73946Z" fill="white"/>
<path d="M70.6627 27.9297H74.8377L80.9043 27.4126L80.9048 27.1741L74.8433 26.6308L74.838 26.6303H70.6627V27.9297Z" fill="white"/>
<path d="M58.709 27.9297H69.2303V26.6303H58.709V27.9297Z" fill="white"/>
<path d="M70.3235 44.5306C60.3848 53.0593 50.5393 48.0842 46.8588 44.5306L45.9335 45.6248C55.9263 54.669 67.1176 49.6113 71.444 45.6248L70.3235 44.5306Z" fill="white"/>
<path d="M70.4087 7.73625C60.47 -0.792373 50.6245 4.18266 46.9441 7.73625L45.6607 7.03734C55.6535 -2.00686 67.5269 3.05091 71.8533 7.03734L70.4087 7.73625Z" fill="white"/>
<path d="M0.251799 26.4374C0.250636 26.5414 0.25 26.6456 0.25 26.75C0.25 26.8543 0.250636 26.9585 0.251799 27.0626M52.1928 17.4633C48.9986 12.9652 45.1412 8.51396 43.8392 7.73946L47.0964 9.33202L52.1928 17.4633ZM52.1928 17.4633C52.2393 17.5288 52.2858 17.5942 52.3321 17.6595M52.1928 17.4633C52.2376 17.5267 52.284 17.5921 52.3321 17.6595M52.3321 17.6595C55.3628 21.9319 58.0225 25.8252 58.2796 25.1833L58.3913 24.3709C56.9578 23.7932 53.8427 19.7767 52.3321 17.6595ZM117.248 26.4374C117.249 26.5414 117.25 26.6456 117.25 26.75C117.25 26.8543 117.249 26.9585 117.248 27.0626M65.3072 17.4633C68.5014 12.9652 72.3588 8.51396 73.6609 7.73946L70.4037 9.33202L65.3072 17.4633ZM65.3072 17.4633C65.2607 17.5288 65.2142 17.5942 65.1679 17.6595M65.3072 17.4633C65.2624 17.5267 65.216 17.5921 65.1679 17.6595M65.1679 17.6595C62.1373 21.9319 59.4775 25.8252 59.2204 25.1833L59.1087 24.3709C60.5422 23.7932 63.6573 19.7767 65.1679 17.6595ZM26.4143 0.25C40.8645 0.250005 52.5787 12.1145 52.5787 26.75C52.5787 41.3855 40.8645 53.25 26.4143 53.25C20.0523 53.25 14.2206 50.9501 9.68551 47.1264C13.6909 50.3898 18.6876 52.3268 24.1064 52.3268C37.2819 52.3268 47.9628 40.8757 47.9628 26.75C47.9628 12.6243 37.2819 1.17323 24.1064 1.17323C18.6876 1.17323 13.6909 3.11022 9.68551 6.37352C14.2206 2.5499 20.0523 0.25 26.4143 0.25ZM57.9214 14.4916L58.7256 5.92613L59.4903 14.4916V38.4613L58.7256 47.5397L57.9214 38.4613V14.4916ZM46.8373 27.9297H42.6623L36.5957 27.4126L36.5952 27.1741L42.6567 26.6308L42.662 26.6303H46.8373V27.9297ZM58.791 27.9297H48.2697V26.6303H58.791V27.9297ZM91.0857 0.25C76.6355 0.250005 64.9213 12.1145 64.9213 26.75C64.9213 41.3855 76.6355 53.25 91.0857 53.25C97.4477 53.25 103.279 50.9501 107.815 47.1264C103.809 50.3898 98.8124 52.3268 93.3936 52.3268C80.2181 52.3268 69.5372 40.8757 69.5372 26.75C69.5372 12.6243 80.2181 1.17323 93.3936 1.17323C98.8124 1.17323 103.809 3.11022 107.815 6.37352C103.279 2.5499 97.4477 0.25 91.0857 0.25ZM70.6627 27.9297H74.8377L80.9043 27.4126L80.9048 27.1741L74.8433 26.6308L74.838 26.6303H70.6627V27.9297ZM58.709 27.9297H69.2303V26.6303H58.709V27.9297ZM46.8588 44.5306C50.5393 48.0842 60.3848 53.0593 70.3235 44.5306L71.444 45.6248C67.1176 49.6113 55.9263 54.669 45.9335 45.6248L46.8588 44.5306ZM46.9441 7.73625C50.6245 4.18266 60.47 -0.792373 70.4087 7.73625L71.8533 7.03734C67.5269 3.05091 55.6534 -2.00686 45.6607 7.03734L46.9441 7.73625Z" stroke="#EBEBDF" stroke-width="0.5"/>
</svg>
